# xmcd CD database file
#
# Track frame offsets:
#	150
#	17974
#	34153
#	50875
#	64468
#	89926
#	103355
#	117218
#	132611
#	145565
#	164039
#	180433
#	201307
#	219088
#
# Disc length: 3074 seconds
#
# Revision: 1
# Processed by: cddbd v1.5.2PL0 Copyright (c) Steve Scherf et al.
# Submitted via: CDex 1.51
#
DISCID=e10c000e
DTITLE=Isla Grant - A Dream Come True
DYEAR=2001
DGENRE=Country
TTITLE0=Circle Of Gold
TTITLE1=It's A Dream Come True
TTITLE2=You're Always There For Me
TTITLE3=Will You Love Me
TTITLE4=Island Of Memories
TTITLE5=We'll Meet Again My Friends
TTITLE6=The Keeper Of My Heart
TTITLE7=I Miss The Biggest Part Of Me
TTITLE8=My World Revolves Around You
TTITLE9=Within My Fathers Arms
TTITLE10=Spending Time With My Firends
TTITLE11=This Wonderful Land
TTITLE12=Fiddle On The Wall
TTITLE13=Precious Lord Please Lead Me
EXTD=YEAR: 2001
EXTT0=
EXTT1=
EXTT2=
EXTT3=
EXTT4=
EXTT5=
EXTT6=
EXTT7=
EXTT8=
EXTT9=
EXTT10=
EXTT11=
EXTT12=
EXTT13=
PLAYORDER=
